<mxfile host="app.diagrams.net" modified="2020-12-16T21:19:24.261Z" agent="5.0 (Windows NT 10.0; Win64; x64) AppleWebKit/537.36 (KHTML, like Gecko) Chrome/87.0.4280.88 Safari/537.36" etag="vOcVOUOSPRWTX3TWeu7b" compressed="false" version="14.0.4" type="device">
  <diagram name="Page-1" id="e7e014a7-5840-1c2e-5031-d8a46d1fe8dd">
    <mxGraphModel dx="1422" dy="747" grid="1" gridSize="10" guides="1" tooltips="1" connect="1" arrows="1" fold="1" page="1" pageScale="1" pageWidth="1169" pageHeight="826" background="#ffffff" math="0" shadow="0">
      <root>
        <mxCell id="0" />
        <mxCell id="1" parent="0" />
        <mxCell id="0K92tgQqKM5XLM2mHAEs-52" value="" style="group" parent="1" vertex="1" connectable="0" treatAsSingle="0">
          <mxGeometry x="200" y="100" width="1260" height="460" as="geometry" />
        </mxCell>
        <mxCell id="0K92tgQqKM5XLM2mHAEs-41" value="" style="shape=cube;whiteSpace=wrap;html=1;boundedLbl=1;backgroundOutline=1;darkOpacity=0.05;darkOpacity2=0.1;flipH=1;" parent="0K92tgQqKM5XLM2mHAEs-52" vertex="1">
          <mxGeometry width="1260" height="460" as="geometry" />
        </mxCell>
        <mxCell id="0K92tgQqKM5XLM2mHAEs-43" value="&lt;span style=&quot;font-size: 16px&quot;&gt;«&lt;/span&gt;&lt;span lang=&quot;EN-US&quot; style=&quot;font-size: 16px&quot;&gt;device&lt;/span&gt;&lt;span style=&quot;font-size: 16px&quot;&gt;»&lt;/span&gt;&lt;br&gt;&lt;font style=&quot;font-size: 16px&quot;&gt;PC/Laptop&lt;/font&gt;" style="text;whiteSpace=wrap;html=1;align=center;" parent="0K92tgQqKM5XLM2mHAEs-52" vertex="1">
          <mxGeometry y="20" width="1241.6058394160584" height="50" as="geometry" />
        </mxCell>
        <mxCell id="0K92tgQqKM5XLM2mHAEs-44" value="" style="shape=cube;whiteSpace=wrap;html=1;boundedLbl=1;backgroundOutline=1;darkOpacity=0.05;darkOpacity2=0.1;flipH=1;" parent="1" vertex="1">
          <mxGeometry x="200" y="180" width="350" height="380" as="geometry" />
        </mxCell>
        <mxCell id="0K92tgQqKM5XLM2mHAEs-45" value="&lt;span style=&quot;font-size: 16px&quot;&gt;«execution environment&lt;/span&gt;&lt;span style=&quot;font-size: 16px&quot;&gt;»&lt;/span&gt;&lt;br&gt;&lt;span style=&quot;font-size: 16px&quot;&gt;Browser on Chromium&lt;/span&gt;" style="text;whiteSpace=wrap;html=1;align=center;" parent="1" vertex="1">
          <mxGeometry x="200" y="200" width="330" height="50" as="geometry" />
        </mxCell>
        <mxCell id="0K92tgQqKM5XLM2mHAEs-46" value="" style="shape=cube;whiteSpace=wrap;html=1;boundedLbl=1;backgroundOutline=1;darkOpacity=0.05;darkOpacity2=0.1;flipH=1;fillOpacity=50;fillColor=#61DAFB;strokeColor=#61DAFB;" parent="1" vertex="1">
          <mxGeometry x="200" y="260" width="276.32" height="300" as="geometry" />
        </mxCell>
        <mxCell id="0K92tgQqKM5XLM2mHAEs-47" value="&lt;span style=&quot;font-size: 16px&quot;&gt;React Application&lt;/span&gt;" style="text;whiteSpace=wrap;html=1;align=center;" parent="1" vertex="1">
          <mxGeometry x="200" y="280" width="260" height="50" as="geometry" />
        </mxCell>
        <mxCell id="0K92tgQqKM5XLM2mHAEs-48" value="JSX &#xa;Components" style="shape=module;align=left;spacingLeft=20;align=center;verticalAlign=top;fontSize=14;" parent="1" vertex="1">
          <mxGeometry x="260" y="350" width="140" height="70" as="geometry" />
        </mxCell>
        <mxCell id="0K92tgQqKM5XLM2mHAEs-49" value="React-redux" style="shape=module;align=left;spacingLeft=20;align=center;verticalAlign=top;fontSize=14;" parent="1" vertex="1">
          <mxGeometry x="260" y="440" width="140" height="70" as="geometry" />
        </mxCell>
        <mxCell id="0K92tgQqKM5XLM2mHAEs-50" value="" style="shape=cube;whiteSpace=wrap;html=1;boundedLbl=1;backgroundOutline=1;darkOpacity=0.05;darkOpacity2=0.1;flipH=1;fillColor=#226e00;fillOpacity=50;strokeColor=#226E00;" parent="1" vertex="1">
          <mxGeometry x="615" y="180" width="350" height="380" as="geometry" />
        </mxCell>
        <mxCell id="0K92tgQqKM5XLM2mHAEs-51" value="" style="shape=cube;whiteSpace=wrap;html=1;boundedLbl=1;backgroundOutline=1;darkOpacity=0.05;darkOpacity2=0.1;flipH=1;fillOpacity=50;fillColor=#32668F;strokeColor=#32668F;" parent="1" vertex="1">
          <mxGeometry x="1037" y="180" width="350" height="380" as="geometry" />
        </mxCell>
        <mxCell id="0K92tgQqKM5XLM2mHAEs-55" value="" style="shape=cube;whiteSpace=wrap;html=1;boundedLbl=1;backgroundOutline=1;darkOpacity=0.05;darkOpacity2=0.1;flipH=1;fillColor=#f5f5f5;strokeColor=#666666;fontColor=#333333;" parent="1" vertex="1">
          <mxGeometry x="615" y="260" width="276.32" height="300" as="geometry" />
        </mxCell>
        <mxCell id="0K92tgQqKM5XLM2mHAEs-56" value="&lt;span style=&quot;font-size: 16px&quot;&gt;«execution environment&lt;/span&gt;&lt;span style=&quot;font-size: 16px&quot;&gt;»&lt;/span&gt;&lt;br&gt;&lt;span style=&quot;font-size: 16px&quot;&gt;NodeJS&lt;/span&gt;" style="text;whiteSpace=wrap;html=1;align=center;" parent="1" vertex="1">
          <mxGeometry x="660" y="200" width="330" height="50" as="geometry" />
        </mxCell>
        <mxCell id="0K92tgQqKM5XLM2mHAEs-57" value="&lt;span style=&quot;font-size: 16px&quot;&gt;«database&lt;/span&gt;&lt;span style=&quot;font-size: 16px&quot;&gt;»&lt;/span&gt;&lt;br&gt;&lt;span style=&quot;font-size: 16px&quot;&gt;PostgreSQL&lt;/span&gt;" style="text;whiteSpace=wrap;html=1;align=center;" parent="1" vertex="1">
          <mxGeometry x="1037" y="200" width="330" height="50" as="geometry" />
        </mxCell>
        <mxCell id="0K92tgQqKM5XLM2mHAEs-58" value="&lt;span style=&quot;font-size: 16px&quot;&gt;ExpressJS Application&lt;/span&gt;" style="text;whiteSpace=wrap;html=1;align=center;" parent="1" vertex="1">
          <mxGeometry x="615" y="280" width="260" height="50" as="geometry" />
        </mxCell>
        <mxCell id="0K92tgQqKM5XLM2mHAEs-59" value="Route &#xa;Handler" style="shape=module;align=left;spacingLeft=20;align=center;verticalAlign=top;fontSize=14;" parent="1" vertex="1">
          <mxGeometry x="683.16" y="400" width="140" height="70" as="geometry" />
        </mxCell>
        <mxCell id="0K92tgQqKM5XLM2mHAEs-60" value="Express &#xa;Middlewares" style="shape=module;align=left;spacingLeft=20;align=center;verticalAlign=top;fontSize=14;" parent="1" vertex="1">
          <mxGeometry x="683.16" y="480" width="140" height="70" as="geometry" />
        </mxCell>
        <mxCell id="0K92tgQqKM5XLM2mHAEs-61" value="Application&#xa;Methods" style="shape=module;align=left;spacingLeft=20;align=center;verticalAlign=top;fontSize=14;" parent="1" vertex="1">
          <mxGeometry x="683.16" y="320" width="140" height="70" as="geometry" />
        </mxCell>
        <mxCell id="0K92tgQqKM5XLM2mHAEs-62" value="Scheme&#xa;&quot;Users&quot;" style="shape=module;align=left;spacingLeft=20;align=center;verticalAlign=top;fontSize=14;" parent="1" vertex="1">
          <mxGeometry x="1050" y="280" width="140" height="70" as="geometry" />
        </mxCell>
        <mxCell id="0K92tgQqKM5XLM2mHAEs-63" value="Scheme&#xa;&quot;Movies&quot;" style="shape=module;align=left;spacingLeft=20;align=center;verticalAlign=top;fontSize=14;" parent="1" vertex="1">
          <mxGeometry x="1050" y="375" width="140" height="70" as="geometry" />
        </mxCell>
        <mxCell id="0K92tgQqKM5XLM2mHAEs-64" value="Scheme&#xa;&quot;Hallschemes&quot;" style="shape=module;align=left;spacingLeft=20;align=center;verticalAlign=top;fontSize=14;" parent="1" vertex="1">
          <mxGeometry x="1132" y="470" width="140" height="70" as="geometry" />
        </mxCell>
        <mxCell id="0K92tgQqKM5XLM2mHAEs-66" value="Scheme&#xa;&quot;Reservations&quot;" style="shape=module;align=left;spacingLeft=20;align=center;verticalAlign=top;fontSize=14;" parent="1" vertex="1">
          <mxGeometry x="1200" y="375" width="140" height="70" as="geometry" />
        </mxCell>
        <mxCell id="0K92tgQqKM5XLM2mHAEs-67" value="Scheme&#xa;&quot;Showtimes&quot;" style="shape=module;align=left;spacingLeft=20;align=center;verticalAlign=top;fontSize=14;" parent="1" vertex="1">
          <mxGeometry x="1200" y="280" width="140" height="70" as="geometry" />
        </mxCell>
        <mxCell id="0K92tgQqKM5XLM2mHAEs-68" value="" style="endArrow=none;html=1;fontSize=14;edgeStyle=orthogonalEdgeStyle;" parent="1" source="0K92tgQqKM5XLM2mHAEs-55" target="0K92tgQqKM5XLM2mHAEs-51" edge="1" treatAsSingle="0">
          <mxGeometry width="50" height="50" relative="1" as="geometry">
            <mxPoint x="1000" y="650" as="sourcePoint" />
            <mxPoint x="1050" y="600" as="targetPoint" />
            <Array as="points">
              <mxPoint x="810" y="600" />
              <mxPoint x="1310" y="600" />
            </Array>
          </mxGeometry>
        </mxCell>
        <mxCell id="0K92tgQqKM5XLM2mHAEs-74" value="&lt;span style=&quot;font-size: 16px&quot;&gt;«protocol&lt;/span&gt;&lt;span style=&quot;font-size: 16px&quot;&gt;»&lt;br&gt;&lt;/span&gt;&lt;span style=&quot;font-size: 16px&quot;&gt;REST&amp;nbsp;&lt;/span&gt;&lt;span style=&quot;font-size: 16px&quot;&gt;HTTP, node-postgres&lt;/span&gt;" style="edgeLabel;html=1;align=center;verticalAlign=middle;resizable=0;points=[];fontSize=14;labelBackgroundColor=#ffffff;" parent="0K92tgQqKM5XLM2mHAEs-68" vertex="1" connectable="0">
          <mxGeometry x="-0.0914" relative="1" as="geometry">
            <mxPoint as="offset" />
          </mxGeometry>
        </mxCell>
        <mxCell id="0K92tgQqKM5XLM2mHAEs-69" value="" style="endArrow=none;fontSize=14;edgeStyle=orthogonalEdgeStyle;html=1;" parent="1" source="0K92tgQqKM5XLM2mHAEs-46" edge="1" treatAsSingle="0">
          <mxGeometry width="50" height="50" relative="1" as="geometry">
            <mxPoint x="299.99647058823535" y="560.0000000000002" as="sourcePoint" />
            <mxPoint x="751.8788235294116" y="560.0000000000002" as="targetPoint" />
            <Array as="points">
              <mxPoint x="330" y="600" />
              <mxPoint x="752" y="600" />
            </Array>
          </mxGeometry>
        </mxCell>
        <mxCell id="0K92tgQqKM5XLM2mHAEs-72" value="&lt;span style=&quot;font-size: 16px&quot;&gt;«protocol&lt;/span&gt;&lt;span style=&quot;font-size: 16px&quot;&gt;&lt;span&gt;»&lt;br&gt;&lt;/span&gt;&lt;span&gt;REST HTTP&lt;/span&gt;&lt;br&gt;&lt;/span&gt;" style="edgeLabel;html=1;align=center;verticalAlign=middle;resizable=0;points=[];fontSize=14;labelBackgroundColor=#ffffff;" parent="0K92tgQqKM5XLM2mHAEs-69" vertex="1" connectable="0">
          <mxGeometry x="0.0672" y="2" relative="1" as="geometry">
            <mxPoint as="offset" />
          </mxGeometry>
        </mxCell>
      </root>
    </mxGraphModel>
  </diagram>
</mxfile>
